<svg xmlns="http://www.w3.org/2000/svg" xmlns:xlink="http://www.w3.org/1999/xlink" width="26" height="25" viewBox="0 0 26 25"><defs><path id="et9ea" d="M991.42 1766.85c.32.64.04 1.42-.61 1.73a1.32 1.32 0 0 1-1.76-.6 4.16 4.16 0 0 0-3.75-2.31 1.3 1.3 0 0 1-1.31-1.29c0-.72.59-1.3 1.31-1.3a6.76 6.76 0 0 1 6.12 3.77zm8.04 16.32a1.64 1.64 0 0 1-2.33 0l-4.33-4.27a11.2 11.2 0 0 1-6.84 2.32 11.11 11.11 0 0 1-11.18-11.02c0-6.07 5.01-11.01 11.18-11.01 6.16 0 11.18 4.94 11.18 11.01 0 2.37-.77 4.56-2.07 6.36l4.39 4.32a1.6 1.6 0 0 1 0 2.29zm-13.5-4.54a8.57 8.57 0 0 0 8.55-8.43 8.5 8.5 0 0 0-8.55-8.42 8.5 8.5 0 0 0-8.55 8.42 8.5 8.5 0 0 0 8.55 8.43z"/></defs><g><g transform="translate(-974 -1759)"><use xlink:href="#et9ea"/><use fill="#fff" xlink:href="#et9ea"/></g></g></svg>