<svg xmlns="http://www.w3.org/2000/svg" xmlns:xlink="http://www.w3.org/1999/xlink" width="26" height="26" viewBox="0 0 26 26"><defs><path id="mqb1a" d="M943.5 1770.24l-1.93 1.93-3.18 3.19c-.16.17-.35.32-.52.46a6.24 6.24 0 0 1-8.23-.46l2.64-2.65c.96.96 2.51.96 3.46 0l2.03-2.02 3.09-3.09a2.45 2.45 0 0 0-3.46-3.46l-2.46 2.45a7.1 7.1 0 0 0-4.9-.37l4.72-4.73a6.18 6.18 0 1 1 8.74 8.75zm-7.65 7.61l-4.62 4.67a6.19 6.19 0 0 1-8.75-8.75l5.12-5.11a6.2 6.2 0 0 1 8.74 0l-2.64 2.64a2.44 2.44 0 0 0-3.46 0l-5.11 5.12a2.45 2.45 0 0 0 3.46 3.46l2.35-2.36c2 .81 2.55.87 4.9.33z"/></defs><g><g transform="translate(-920 -1759)"><use xlink:href="#mqb1a"/><use fill="#c7b299" xlink:href="#mqb1a"/></g></g></svg>