<svg xmlns="http://www.w3.org/2000/svg" xmlns:xlink="http://www.w3.org/1999/xlink" width="49" height="49" viewBox="0 0 49 49"><defs><path id="sfloa" d="M534.67 1123.72l-14.27 14.26-32.87 14.48 14.48-32.87 14.27-14.26a1.6 1.6 0 0 1 2.25 2.25l-13.85 13.84-8.57 19.47 3 3 19.46-8.58 13.85-13.84a1.6 1.6 0 0 1 2.25 2.25zm-20.17 6.5l13.33-13.34a1.6 1.6 0 0 1 2.25 2.25l-13.34 13.34c-.3.3-.71.46-1.12.46-.4 0-.81-.16-1.13-.46a1.6 1.6 0 0 1 0-2.25zm-3.49-3.49l13.34-13.33a1.6 1.6 0 0 1 2.25 2.25l-13.34 13.34c-.3.3-.71.46-1.12.46-.4 0-.81-.16-1.13-.46a1.6 1.6 0 0 1 0-2.26zm-3.48-3.48l13.34-13.33a1.6 1.6 0 0 1 2.25 2.25l-13.34 13.33a1.6 1.6 0 0 1-1.12.47 1.6 1.6 0 0 1-1.13-2.72z"/></defs><g><g transform="translate(-487 -1104)"><use xlink:href="#sfloa"/><use fill="#555" xlink:href="#sfloa"/></g></g></svg>