<svg xmlns="http://www.w3.org/2000/svg" xmlns:xlink="http://www.w3.org/1999/xlink" width="24" height="24"><defs><path id="a" d="M1503.76 76.76c-.3.3-.79.3-1.1 0l-6.21-6.12a10.18 10.18 0 0 1-6.36 2.22 10.01 10.01 0 0 1-10.09-9.93c0-5.49 4.52-9.93 10.09-9.93 5.58 0 10.1 4.44 10.1 9.93 0 2.56-1 4.9-2.62 6.66l6.19 6.1c.3.29.3.77 0 1.07zm-5.13-13.83c0-4.64-3.82-8.4-8.54-8.4a8.48 8.48 0 0 0-8.54 8.4c0 4.64 3.83 8.4 8.54 8.4a8.47 8.47 0 0 0 8.54-8.4z"/></defs><g transform="translate(-1480 -53)"><use xlink:href="#a"/><use fill="#fff" xlink:href="#a"/></g></svg>