<svg xmlns="http://www.w3.org/2000/svg" xmlns:xlink="http://www.w3.org/1999/xlink" width="18" height="24"><defs><path id="a" d="M1451.99 59v15a3 3 0 0 1-2.99 3h-12a3 3 0 0 1-3-3V59a3 3 0 0 1 3-3h1.5c0-1.66 2.01-3 4.5-3 2.48 0 4.5 1.34 4.5 3h1.5a3 3 0 0 1 2.99 3zM1440 56h6c0-1.04-1.35-1.5-3-1.5-1.66 0-3 .46-3 1.5zm10.49 16.5h-14.99V74c0 .82.67 1.5 1.5 1.5h12a1.5 1.5 0 0 0 1.49-1.5zm0-13.5c0-.83-.67-1.5-1.49-1.5h-1.5V62h-1.5v-4.5h-6V62h-1.5v-4.5h-1.5c-.83 0-1.5.67-1.5 1.5v12h14.99z"/></defs><g transform="translate(-1434 -53)"><use xlink:href="#a"/><use fill="#fff" xlink:href="#a"/></g></svg>