<svg xmlns="http://www.w3.org/2000/svg" xmlns:xlink="http://www.w3.org/1999/xlink" width="52" height="36"><defs><path id="a" d="M1388.74 1146.15v-22.17c0-1.36 1.1-2.48 2.46-2.48h10.81v-1.44c0-1 .38-1.93 1.08-2.63.7-.71 1.63-1.1 2.61-1.1h6.29a3.7 3.7 0 0 1 3.68 3.73v1.44h10.82a2.48 2.48 0 0 1 2.46 2.48v1.66h-26.21a6.8 6.8 0 0 0-5.74 3.6zm15.73-24.65h8.75v-1.44c0-.69-.55-1.24-1.23-1.24h-6.29c-.33 0-.64.12-.87.36-.23.24-.36.55-.36.88zm25.45 28.26a4.32 4.32 0 0 1-3.54 2.22h-35.3c-1.35 0-1.97-1-1.37-2.22l9.49-19.42a4.34 4.34 0 0 1 3.54-2.23h35.3c1.35 0 1.97 1.01 1.37 2.23z"/></defs><g transform="translate(-1388 -1116)"><use xlink:href="#a"/><use fill="#555" xlink:href="#a"/></g></svg>